<svg xmlns="http://www.w3.org/2000/svg" viewBox="0 0 300 300"><defs><style>.cls-1{fill:#3b67ad;}.cls-2{fill:#fff;}.cls-3{fill:none;stroke:#3b67ad;stroke-linecap:round;stroke-linejoin:round;stroke-width:0;}</style></defs><title>DOCUMENT</title><g id="Layer_2" data-name="Layer 2"><g id="Layer_1-2" data-name="Layer 1"><path class="cls-1" d="M150,0A150,150,0,1,0,300,150,150,150,0,0,0,150,0Zm78.08,235.91a16.64,16.64,0,0,1-16.62,16.63H88.54a16.65,16.65,0,0,1-16.62-16.63V64.09A16.65,16.65,0,0,1,88.54,47.46h94.62a5,5,0,0,1,2.83.88,5.07,5.07,0,0,1,1.6,1.06l35.69,35.7a4.82,4.82,0,0,1,1,1.37l2.37,2.38a5,5,0,0,1,1.46,3.53Z"/><path class="cls-1" d="M179.05,78.24V57.46H88.54a6.63,6.63,0,0,0-6.62,6.63V235.91a6.63,6.63,0,0,0,6.62,6.63H211.46a6.63,6.63,0,0,0,6.62-6.63V94.45l-.82-.82H194.45A15.41,15.41,0,0,1,179.05,78.24ZM205.26,215.9H93.77v-5h0v-5H205.26v5h0Zm0-30.29v5H93.77v-5h0v-5H205.26v5Zm0-25.29v5H93.77v-5h0v-5H205.26v5Zm0-25.29v5H93.77v-5h0v-5H205.26v5Zm0-25.29h0v5H93.77v-5h0v-5H205.26v5Z"/><path class="cls-2" d="M224.25,86.47a4.82,4.82,0,0,0-1-1.37L187.59,49.4a5.07,5.07,0,0,0-1.6-1.06,5,5,0,0,0-2.83-.88H88.54A16.65,16.65,0,0,0,71.92,64.09V235.91a16.65,16.65,0,0,0,16.62,16.63H211.46a16.64,16.64,0,0,0,16.62-16.63V92.38a5,5,0,0,0-1.46-3.53Zm-6.17,8V235.91a6.63,6.63,0,0,1-6.62,6.63H88.54a6.63,6.63,0,0,1-6.62-6.63V64.09a6.63,6.63,0,0,1,6.62-6.63h90.51V78.24a15.41,15.41,0,0,0,15.4,15.39h22.81ZM194.45,83.63a5.41,5.41,0,0,1-5.4-5.39V65l18.63,18.62Z"/><path class="cls-1" d="M189.05,78.24a5.41,5.41,0,0,0,5.4,5.39h13.23L189.05,65Z"/><line class="cls-3" x1="93.77" y1="109.74" x2="93.77" y2="109.74"/><line class="cls-3" x1="205.26" y1="109.74" x2="205.26" y2="109.74"/><polygon class="cls-2" points="93.77 104.74 93.77 109.74 93.77 114.74 205.26 114.74 205.26 109.74 205.26 104.74 93.77 104.74"/><line class="cls-3" x1="93.77" y1="135.03" x2="93.77" y2="135.03"/><line class="cls-3" x1="205.26" y1="135.03" x2="205.26" y2="135.03"/><polygon class="cls-2" points="93.77 130.03 93.77 135.03 93.77 140.03 205.26 140.03 205.26 135.03 205.26 130.03 93.77 130.03"/><line class="cls-3" x1="205.26" y1="160.32" x2="205.26" y2="160.32"/><line class="cls-3" x1="93.77" y1="160.32" x2="93.77" y2="160.32"/><polygon class="cls-2" points="93.77 155.32 93.77 160.32 93.77 165.32 205.26 165.32 205.26 160.32 205.26 155.32 93.77 155.32"/><line class="cls-3" x1="93.77" y1="185.61" x2="93.77" y2="185.61"/><line class="cls-3" x1="205.26" y1="185.61" x2="205.26" y2="185.61"/><polygon class="cls-2" points="93.77 180.61 93.77 185.61 93.77 190.61 205.26 190.61 205.26 185.61 205.26 180.61 93.77 180.61"/><line class="cls-3" x1="205.26" y1="210.9" x2="205.26" y2="210.9"/><line class="cls-3" x1="93.77" y1="210.9" x2="93.77" y2="210.9"/><polygon class="cls-2" points="93.77 205.9 93.77 210.9 93.77 215.9 205.26 215.9 205.26 210.9 205.26 205.9 93.77 205.9"/></g></g></svg>