<svg xmlns="http://www.w3.org/2000/svg" viewBox="0 0 300 300"><defs><style>.cls-1{fill:#3b67ad;}.cls-2{fill:none;stroke:#3b67ad;stroke-linecap:round;stroke-linejoin:round;stroke-width:0;}.cls-3{fill:#fff;}</style></defs><title>OTHER</title><g id="Layer_2" data-name="Layer 2"><g id="Layer_1-2" data-name="Layer 1"><path class="cls-1" d="M150,0A150,150,0,1,0,300,150,150,150,0,0,0,150,0Zm72.75,77.25h0l-1.52,42-7-.25,1-27.15L194,113.12l-28,28-7.07-7.07,28-28h0l21.27-21.27-27.16,1-.25-7ZM77.26,222.74h0l1.54-42,7,.25-1,27.16,21-21h0l28.32-28.32,7.07,7.07-20.34,20.34-29,29,27.15-1,.25,7Zm103.48-1.52.25-7,27.16,1L84.78,91.85l1,27.16-7,.25-1.54-42,42,1.53-.25,7-27.15-1L215.21,208.14l-1-27.15,7-.25,1.53,42Z"/><line class="cls-2" x1="222.74" y1="77.26" x2="222.75" y2="77.25"/><line class="cls-2" x1="77.26" y1="222.74" x2="77.25" y2="222.75"/><polygon class="cls-3" points="214.22 180.99 215.21 208.14 91.86 84.79 119.01 85.78 119.26 78.78 77.25 77.25 78.78 119.26 85.78 119.01 84.78 91.85 208.15 215.22 180.99 214.22 180.74 221.22 222.75 222.75 221.22 180.74 214.22 180.99"/><polygon class="cls-3" points="119.01 214.22 91.86 215.21 120.82 186.25 141.16 165.91 134.09 158.84 105.77 187.16 105.77 187.16 84.78 208.15 85.78 180.99 78.78 180.74 77.25 222.75 77.25 222.75 119.26 221.22 119.01 214.22"/><polygon class="cls-3" points="180.99 85.78 208.15 84.78 186.88 106.05 186.88 106.05 158.84 134.09 165.91 141.16 193.95 113.12 215.21 91.86 214.22 119.01 221.22 119.26 222.75 77.25 222.75 77.25 180.74 78.78 180.99 85.78"/></g></g></svg>