<svg xmlns="http://www.w3.org/2000/svg" viewBox="0 0 300 300"><defs><style>.cls-1{fill:#3b67ad;}.cls-2{fill:none;stroke:#3b67ad;stroke-linecap:round;stroke-linejoin:round;stroke-width:0;}.cls-3{fill:#fff;}</style></defs><title>PRESENTATION</title><g id="Layer_2" data-name="Layer 2"><g id="Layer_1-2" data-name="Layer 1"><path class="cls-1" d="M150,0A150,150,0,1,0,300,150,150,150,0,0,0,150,0ZM255.16,74.29h-7V187.45A20.55,20.55,0,0,1,227.62,208H190.74l26.73,35.79-8,6L178.25,208H155v36.78H145V208H121.75L90.54,249.75l-4-3h0l-4-3L109.26,208H72.38a20.55,20.55,0,0,1-20.53-20.53V74.29h-7v-10H145V49.41h10V64.29H255.16v5h0Z"/><path class="cls-1" d="M61.85,187.45A10.54,10.54,0,0,0,72.38,198H227.62a10.54,10.54,0,0,0,10.53-10.53V74.29H61.85ZM151.7,89.93a5,5,0,0,1,5-5,45.9,45.9,0,0,1,45.84,45.84,5,5,0,0,1-5,5H156.7a5,5,0,0,1-5-5Zm-8.4,8.41a5,5,0,0,1,5,5v35.83h35.83a5,5,0,0,1,5,5A45.84,45.84,0,1,1,143.3,98.34Z"/><line class="cls-2" x1="150" y1="199.66" x2="150" y2="199.66"/><line class="cls-2" x1="86.54" y1="246.76" x2="86.54" y2="246.76"/><line class="cls-2" x1="179.78" y1="201.66" x2="179.78" y2="201.66"/><line class="cls-2" x1="255.16" y1="69.29" x2="255.16" y2="69.29"/><path class="cls-3" d="M243.15,64.29H155V49.41H145V64.29H44.84v10h7V187.45A20.55,20.55,0,0,0,72.38,208h36.88L82.53,243.77l4,3,4,3L121.75,208H145v36.78h10V208h23.25l31.21,41.77,8-6L190.74,208h36.88a20.55,20.55,0,0,0,20.53-20.53V74.29h7v-10Zm-5,123.16A10.54,10.54,0,0,1,227.62,198H72.38a10.54,10.54,0,0,1-10.53-10.53V74.29h176.3ZM150,199.66Zm29.78,2Z"/><path class="cls-1" d="M143.3,180a35.89,35.89,0,0,0,35.48-30.84H143.3a5,5,0,0,1-5-5V108.69a35.83,35.83,0,0,0,5,71.32Z"/><path class="cls-3" d="M143.3,190a45.88,45.88,0,0,0,45.83-45.84,5,5,0,0,0-5-5H148.3V103.34a5,5,0,0,0-5-5,45.84,45.84,0,1,0,0,91.67Zm-5-81.32v35.48a5,5,0,0,0,5,5h35.48a35.83,35.83,0,1,1-40.48-40.48Z"/><path class="cls-1" d="M161.7,95.28v30.49h30.49A35.91,35.91,0,0,0,161.7,95.28Z"/><path class="cls-3" d="M156.7,135.77h40.84a5,5,0,0,0,5-5A45.9,45.9,0,0,0,156.7,84.93a5,5,0,0,0-5,5v40.84A5,5,0,0,0,156.7,135.77Zm5-40.49a35.91,35.91,0,0,1,30.49,30.49H161.7Z"/></g></g></svg>