<svg xmlns="http://www.w3.org/2000/svg" viewBox="0 0 300 300"><defs><style>.cls-1{fill:#3b67ad;}.cls-2{fill:#fff;}.cls-3{fill:none;stroke:#3b67ad;stroke-linecap:round;stroke-linejoin:round;stroke-width:0;}</style></defs><title>SHEET</title><g id="Layer_2" data-name="Layer 2"><g id="Layer_1-2" data-name="Layer 1"><path class="cls-1" d="M150,0A150,150,0,1,0,300,150,150,150,0,0,0,150,0Zm78.08,235.91a16.64,16.64,0,0,1-16.62,16.63H88.54a16.64,16.64,0,0,1-16.62-16.63V64.09A16.64,16.64,0,0,1,88.54,47.46h94.62a4.93,4.93,0,0,1,2.82.88,5,5,0,0,1,1.61,1.06l35.69,35.7a4.82,4.82,0,0,1,1,1.37l2.37,2.38a5,5,0,0,1,1.46,3.53Z"/><path class="cls-1" d="M179.05,78.24V57.46H88.54a6.63,6.63,0,0,0-6.62,6.63V235.91a6.63,6.63,0,0,0,6.62,6.63H211.46a6.63,6.63,0,0,0,6.62-6.63V94.45l-.82-.82H194.45A15.41,15.41,0,0,1,179.05,78.24Zm22.33,28.89v97a5,5,0,0,1-5,5H103.62a5,5,0,0,1-5-5v-97a5,5,0,0,1,5-5h92.76A5,5,0,0,1,201.38,107.13Z"/><path class="cls-2" d="M224.25,86.47a4.82,4.82,0,0,0-1-1.37L187.59,49.4A5,5,0,0,0,186,48.34a4.93,4.93,0,0,0-2.82-.88H88.54A16.64,16.64,0,0,0,71.92,64.09V235.91a16.64,16.64,0,0,0,16.62,16.63H211.46a16.64,16.64,0,0,0,16.62-16.63V92.38a5,5,0,0,0-1.46-3.53Zm-6.17,8V235.91a6.63,6.63,0,0,1-6.62,6.63H88.54a6.63,6.63,0,0,1-6.62-6.63V64.09a6.63,6.63,0,0,1,6.62-6.63h90.51V78.24a15.41,15.41,0,0,0,15.4,15.39h22.81ZM194.45,83.63a5.41,5.41,0,0,1-5.4-5.39V65l18.63,18.62Z"/><path class="cls-1" d="M189.05,78.24a5.41,5.41,0,0,0,5.4,5.39h13.23L189.05,65Z"/><rect class="cls-1" x="108.62" y="178.57" width="36.38" height="20.57"/><rect class="cls-1" x="155" y="178.57" width="36.38" height="20.57"/><rect class="cls-1" x="155" y="112.13" width="36.38" height="20.57"/><rect class="cls-1" x="108.62" y="142.69" width="36.38" height="25.87"/><rect class="cls-1" x="108.62" y="112.13" width="36.38" height="20.57"/><rect class="cls-1" x="155" y="142.69" width="36.38" height="25.87"/><path class="cls-2" d="M98.62,107.13v97a5,5,0,0,0,5,5h92.76a5,5,0,0,0,5-5v-97a5,5,0,0,0-5-5H103.62A5,5,0,0,0,98.62,107.13ZM145,142.69v25.88H108.62V142.69Zm10,25.88V142.69h36.38v25.88Zm-10-35.88H108.62V112.13H145Zm-36.38,45.88H145v20.57H108.62ZM155,199.14V178.57h36.38v20.57Zm36.38-66.45H155V112.13h36.38ZM150,206.41Z"/><line class="cls-3" x1="150" y1="206.41" x2="150" y2="206.41"/></g></g></svg>