<svg xmlns="http://www.w3.org/2000/svg" viewBox="0 0 300 300"><defs><style>.cls-1{fill:#3b67ad;}.cls-2{fill:#fff;}</style></defs><title>VIDEO</title><g id="Layer_2" data-name="Layer 2"><g id="Layer_1-2" data-name="Layer 1"><path class="cls-1" d="M150,0A150,150,0,1,0,300,150,150,150,0,0,0,150,0ZM255,201.15a13.93,13.93,0,0,1-13.91,13.92H58.92A13.93,13.93,0,0,1,45,201.15V98.85A13.93,13.93,0,0,1,58.92,84.93H241.08A13.93,13.93,0,0,1,255,98.85Z"/><path class="cls-1" d="M241.08,94.93H58.92A3.92,3.92,0,0,0,55,98.85v102.3a3.92,3.92,0,0,0,3.91,3.92H241.08a3.92,3.92,0,0,0,3.91-3.92V98.85A3.92,3.92,0,0,0,241.08,94.93Zm-54.8,59.12-52.71,38.22a5,5,0,0,1-7.93-4V111.77a5,5,0,0,1,7.93-4L186.28,146a5,5,0,0,1,0,8.1Z"/><path class="cls-2" d="M241.08,84.93H58.92A13.93,13.93,0,0,0,45,98.85v102.3a13.93,13.93,0,0,0,13.91,13.92H241.08A13.93,13.93,0,0,0,255,201.15V98.85A13.93,13.93,0,0,0,241.08,84.93ZM245,201.15a3.92,3.92,0,0,1-3.91,3.92H58.92A3.92,3.92,0,0,1,55,201.15V98.85a3.92,3.92,0,0,1,3.91-3.92H241.08A3.92,3.92,0,0,1,245,98.85Z"/><polygon class="cls-1" points="135.64 178.42 174.83 150 135.64 121.58 135.64 178.42"/><path class="cls-2" d="M186.28,146l-52.71-38.22a5,5,0,0,0-7.93,4v76.46a5,5,0,0,0,2.73,4.45,5,5,0,0,0,5.2-.41l52.71-38.22a5,5,0,0,0,0-8.1Zm-50.64,32.47V121.58L174.83,150Z"/></g></g></svg>