<?xml version="1.0" encoding="utf-8"?>
<!-- Generator: Adobe Illustrator 22.1.0, SVG Export Plug-In . SVG Version: 6.00 Build 0)  -->
<svg version="1.1" id="Layer_1" xmlns="http://www.w3.org/2000/svg" xmlns:xlink="http://www.w3.org/1999/xlink" x="0px" y="0px"
	 viewBox="0 0 382.7 300" style="enable-background:new 0 0 382.7 300;" xml:space="preserve">
<style type="text/css">
	.st0{fill:#939598;}
</style>
<path class="st0" d="M352.1,200.3c-4.9-12.5-16-28.5-41-33.8c-15.2-3.2-19.2-7-21-10.4c22.4-13.8,22.4-40.7,22.4-58.8
	c0-29-22-53.2-50-55.2c-15.2-1.1-29.6,4-40.7,14.3c-7.4,6.9-12.6,15.7-15.2,25.3c-4.4-1.6-9-2.6-13.8-2.9
	c-5.9-0.4-11.7,0.1-17.2,1.5c-6.6-20.9-25-36.7-47.4-38.2c-15.2-1.1-29.6,4-40.7,14.3C76.4,66.7,70.2,81.1,70.2,96.1
	c0,19.7,0,46.3,22.4,60.1c-1.8,3.4-5.8,7.2-21,10.4c-25,5.3-36.1,21.3-41,33.8c-1.8,4.7-1.2,10,1.6,14.2c2.9,4.2,7.6,6.7,12.7,6.7
	h59.9c-4.5,5.2-7.5,10.8-9.5,15.9c-1.8,4.7-1.2,10,1.6,14.2c2.9,4.2,7.6,6.7,12.7,6.7h158.7c5.1,0,9.8-2.5,12.7-6.7
	c2.9-4.2,3.5-9.5,1.6-14.2c-2-5-5-10.6-9.5-15.9h65c5.1,0,9.8-2.5,12.7-6.7C353.4,210.3,354,205,352.1,200.3z M44.8,211
	c-1.7,0-3.3-0.8-4.2-2.2c-1-1.4-1.2-3.1-0.5-4.7c4-10.1,13-23.2,33.6-27.5c22.2-4.7,26.5-11.6,29.3-18.9c0.2-0.5,0.4-1.1,0.6-1.6
	l2.1-4.6l-4.5-2.2c-20.9-10.2-20.9-33.1-20.9-53.3c0-12.1,5.1-23.8,14-32c8.2-7.6,18.7-11.7,29.8-11.7c1.1,0,2.2,0,3.2,0.1
	c18.2,1.3,33.3,14.2,38.5,31.5c-5,2.4-9.7,5.5-13.9,9.4c-10.9,10.2-17.2,24.6-17.2,39.5c0,19.7,0,46.3,22.4,60.1
	c-1.8,3.4-5.8,7.2-21,10.4c-7.9,1.7-14.3,4.4-19.7,7.7H44.8z M272.3,245.5c-1,1.4-2.5,2.2-4.2,2.2H109.5c-1.7,0-3.3-0.8-4.2-2.2
	c-1-1.4-1.2-3.1-0.5-4.7c4-10.1,13-23.2,33.6-27.5c22.2-4.7,26.5-11.6,29.3-18.9c0.2-0.5,0.4-1.1,0.6-1.6l2.1-4.6l-4.5-2.2
	C145,175.9,145,153,145,132.8c0-12.1,5.1-23.8,14-32c8.2-7.6,18.7-11.7,29.8-11.7c1.1,0,2.2,0,3.2,0.1c22.8,1.6,40.6,21.4,40.6,45
	c0,22.9-1.6,42.6-20.9,51.9l-4.5,2.2l2.1,4.6c0.2,0.5,0.4,1,0.6,1.6c2.8,7.3,7.1,14.2,29.3,18.9c20.6,4.3,29.7,17.3,33.6,27.5
	C273.5,242.4,273.3,244.1,272.3,245.5z M342.1,208.8c-1,1.4-2.5,2.2-4.2,2.2h-76.8c-5.4-3.3-11.8-6-19.7-7.7h0
	c-15.2-3.2-19.2-7-21-10.4c22.4-13.8,22.4-40.7,22.4-58.8c0-20.3-10.8-38.2-26.9-47.8c1.9-8.5,6.4-16.3,12.8-22.3
	c8.2-7.6,18.7-11.7,29.8-11.7c1.1,0,2.2,0,3.2,0.1c22.8,1.6,40.6,21.4,40.6,45c0,22.9-1.6,42.6-20.9,51.9l-4.5,2.2l2.1,4.6
	c0.2,0.5,0.4,1,0.6,1.6c2.8,7.3,7.1,14.2,29.3,18.9c20.6,4.3,29.7,17.3,33.6,27.5C343.3,205.6,343.1,207.3,342.1,208.8z"/>
</svg>
