<svg xmlns="http://www.w3.org/2000/svg" viewBox="0 0 42.96 40.31"><defs><style>.cls-1{fill:#7ac943;}</style></defs><title>a-team</title><g id="Layer_2" data-name="Layer 2"><g id="Layer_1-2" data-name="Layer 1"><circle class="cls-1" cx="21.48" cy="3.78" r="3.78"/><path class="cls-1" d="M27.61,5.17a6.29,6.29,0,0,1-12.27,0,5,5,0,0,0-3.94,4.91v5a2.52,2.52,0,0,0,5,0V12.6H26.52v2.52a2.52,2.52,0,0,0,5,0v-5A5,5,0,0,0,27.61,5.17Z"/><path class="cls-1" d="M41,30.79a3.78,3.78,0,1,0-3.78,6.55A3.88,3.88,0,0,0,42.47,36,3.81,3.81,0,0,0,41,30.79Z"/><path class="cls-1" d="M38.7,22.18l-4.36-2.52A2.52,2.52,0,0,0,31.82,24L34,25.29,29,34l-2.18-1.26a2.52,2.52,0,0,0-2.52,4.36l4.36,2.52a5,5,0,0,0,6.23-1A6.29,6.29,0,0,1,41,28.06,5,5,0,0,0,38.7,22.18Z"/><path class="cls-1" d="M7.12,32.17A3.82,3.82,0,0,0,.49,36a3.88,3.88,0,0,0,5.25,1.38A3.78,3.78,0,0,0,7.12,32.17Z"/><path class="cls-1" d="M19.62,33.68a2.52,2.52,0,0,0-3.44-.92L14,34,9,25.29,11.14,24a2.52,2.52,0,1,0-2.52-4.36L4.26,22.18A5,5,0,0,0,2,28.06,6.29,6.29,0,0,1,8.11,38.68a5,5,0,0,0,6.23,1l4.36-2.52A2.52,2.52,0,0,0,19.62,33.68Z"/></g></g></svg>