<?xml version="1.0" encoding="utf-8"?>
<!-- Generator: Adobe Illustrator 22.1.0, SVG Export Plug-In . SVG Version: 6.00 Build 0)  -->
<svg version="1.1" id="Layer_1" xmlns="http://www.w3.org/2000/svg" xmlns:xlink="http://www.w3.org/1999/xlink" x="0px" y="0px"
	 viewBox="0 0 300 300" style="enable-background:new 0 0 300 300;" xml:space="preserve">
<style type="text/css">
	.st0{fill:#939598;}
</style>
<path class="st0" d="M229.2,118.3c0.3-2.8,0.5-5.7,0.5-8.6c0-43.9-35.7-79.6-79.6-79.6c-43.9,0-79.6,35.7-79.6,79.6
	c0,2.9,0.2,5.8,0.5,8.6c-26.8,12.8-45.4,40.2-45.4,71.9c0,43.9,35.7,79.6,79.6,79.6c16.7,0,32.2-5.2,45-14c12.8,8.8,28.3,14,45,14
	c43.9,0,79.6-35.7,79.6-79.6C274.6,158.6,256,131.2,229.2,118.3z M80.6,109.7c0-38.3,31.1-69.4,69.4-69.4s69.4,31.1,69.4,69.4
	c0,1.6-0.1,3.1-0.2,4.7c-7.6-2.4-15.8-3.8-24.2-3.8c-16.7,0-32.2,5.2-45,14c-12.8-8.8-28.3-14-45-14c-8.4,0-16.6,1.3-24.2,3.8
	C80.7,112.8,80.6,111.3,80.6,109.7z M174.5,190.3c0,21.1-9.5,40.1-24.5,52.8c-14.9-12.7-24.5-31.7-24.5-52.8c0-1.6,0.1-3.1,0.2-4.7
	c7.6,2.4,15.8,3.8,24.2,3.8c8.4,0,16.6-1.3,24.2-3.8C174.3,187.2,174.5,188.7,174.5,190.3z M150,179.2c-8,0-15.6-1.4-22.8-3.9
	c3.3-15,11.5-28.2,22.8-37.8c11.3,9.6,19.5,22.8,22.8,37.8C165.6,177.8,158,179.2,150,179.2z M117.7,171.1
	c-17.8-9.4-31-26.3-35.4-46.4c7.2-2.5,14.8-3.9,22.8-3.9c13.4,0,25.9,3.9,36.5,10.5C130,141.7,121.5,155.5,117.7,171.1z
	 M158.5,131.3c10.6-6.6,23.1-10.5,36.5-10.5c8,0,15.6,1.4,22.8,3.9c-4.5,20.1-17.7,37-35.4,46.4C178.5,155.5,170,141.7,158.5,131.3z
	 M105,259.7c-38.3,0-69.4-31.1-69.4-69.4c0-26.6,15.1-49.7,37.1-61.4c5.8,23.3,21.8,42.6,43.1,52.8c-0.3,2.8-0.5,5.7-0.5,8.6
	c0,23.4,10.1,44.4,26.2,59C130.9,255.8,118.4,259.7,105,259.7z M195,259.7c-13.4,0-25.9-3.9-36.5-10.5c16.1-14.6,26.2-35.6,26.2-59
	c0-2.9-0.2-5.8-0.5-8.6c21.3-10.2,37.3-29.5,43.1-52.8c22,11.7,37.1,34.8,37.1,61.4C264.4,228.5,233.3,259.7,195,259.7z"/>
</svg>
