<svg xmlns="http://www.w3.org/2000/svg" viewBox="0 0 43 42.53"><defs><style>.cls-1{fill:#79c142;}</style></defs><title>affiliate-centre</title><g id="Layer_2" data-name="Layer 2"><g id="Layer_1-2" data-name="Layer 1"><path class="cls-1" d="M23.77,9.95A5.56,5.56,0,0,0,26,5.35C26,2.71,25.47,0,21.5,0S17,2.71,17,5.35a5.56,5.56,0,0,0,2.24,4.59,6.91,6.91,0,0,0-5.1,6.48,3.35,3.35,0,0,0,2.36,3.29,13.93,13.93,0,0,0,5,.67,13.93,13.93,0,0,0,5-.67,3.35,3.35,0,0,0,2.36-3.29A6.91,6.91,0,0,0,23.77,9.95Z"/><path class="cls-1" d="M9.65,30a5.56,5.56,0,0,0,2.24-4.59c0-2.65-.54-5.35-4.51-5.35s-4.51,2.71-4.51,5.35A5.56,5.56,0,0,0,5.1,30,6.91,6.91,0,0,0,0,36.45a3.35,3.35,0,0,0,2.36,3.29,13.93,13.93,0,0,0,5,.67,13.93,13.93,0,0,0,5-.67,3.35,3.35,0,0,0,2.36-3.29A6.91,6.91,0,0,0,9.65,30Z"/><path class="cls-1" d="M37.9,30a5.56,5.56,0,0,0,2.24-4.59c0-2.65-.54-5.35-4.51-5.35s-4.51,2.71-4.51,5.35A5.56,5.56,0,0,0,33.35,30a6.91,6.91,0,0,0-5.1,6.48,3.35,3.35,0,0,0,2.36,3.29,13.93,13.93,0,0,0,5,.67,13.93,13.93,0,0,0,5-.67A3.35,3.35,0,0,0,43,36.45,6.91,6.91,0,0,0,37.9,30Z"/><path class="cls-1" d="M26.48,40a.53.53,0,0,0-.68-.29,11.6,11.6,0,0,1-4.3.67,11.6,11.6,0,0,1-4.3-.67.53.53,0,0,0-.68.29l-.39,1a.53.53,0,0,0,.29.68,13.62,13.62,0,0,0,5.08.82,13.62,13.62,0,0,0,5.08-.82.53.53,0,0,0,.29-.68Z"/><path class="cls-1" d="M6,17.35l1,.42a.53.53,0,0,0,.69-.28A11.59,11.59,0,0,1,10.19,14a11.6,11.6,0,0,1,3.51-2.56.53.53,0,0,0,.28-.69l-.42-1a.53.53,0,0,0-.69-.28,13.62,13.62,0,0,0-4.17,3,13.61,13.61,0,0,0-3,4.17A.53.53,0,0,0,6,17.35Z"/><path class="cls-1" d="M29.29,11.41A11.6,11.6,0,0,1,32.81,14a11.6,11.6,0,0,1,2.56,3.51.53.53,0,0,0,.69.28l1-.42a.53.53,0,0,0,.28-.69,13.61,13.61,0,0,0-3-4.17,13.62,13.62,0,0,0-4.17-3,.53.53,0,0,0-.69.28l-.42,1a.53.53,0,0,0,.28.69Z"/></g></g></svg>