<svg xmlns="http://www.w3.org/2000/svg" viewBox="0 0 44.88 45.01"><defs><style>.cls-1{fill:#7ac943;}</style></defs><title>conference</title><g id="Layer_2" data-name="Layer 2"><g id="Layer_1-2" data-name="Layer 1"><g id="_Group_" data-name="&lt;Group&gt;"><circle id="_Path_" data-name="&lt;Path&gt;" class="cls-1" cx="8.96" cy="3.66" r="3.66"/><path id="_Path_2" data-name="&lt;Path&gt;" class="cls-1" d="M3.54,17l0-4.33h0a.35.35,0,0,1,.7,0V17h9.36V12.65a.37.37,0,0,1,.74,0v0l0,4.33h2a2.45,2.45,0,0,1,1.58.58l0-4.92a4.19,4.19,0,0,0-4.18-4.16H12L9.7,14.37l.53-2.5a.74.74,0,0,0-.08-.51l-.72-1.31.62-1.18a.26.26,0,0,0-.23-.38H8.08a.26.26,0,0,0-.23.38l.66,1.19-.72,1.31a.74.74,0,0,0-.08.5l.46,2.5L6,8.49H4.2A4.19,4.19,0,0,0,0,12.65l0,4.8A2.45,2.45,0,0,1,1.42,17H3.54Z"/><path id="_Path_3" data-name="&lt;Path&gt;" class="cls-1" d="M3.32,24.34a2.62,2.62,0,0,1,2.62-2.62H12a2.62,2.62,0,0,1,2.62,2.62V27a5.63,5.63,0,0,1,2.2-.9V19.45a.5.5,0,0,0-.5-.5H1.42a.5.5,0,0,0-.5.5v7.93a.5.5,0,0,0,.5.5h1.9Z"/><circle id="_Path_4" data-name="&lt;Path&gt;" class="cls-1" cx="35.84" cy="31.72" r="3.7"/><g id="_Group_2" data-name="&lt;Group&gt;"><path id="_Path_5" data-name="&lt;Path&gt;" class="cls-1" d="M44.86,40.81a4.24,4.24,0,0,0-4.23-4.21H31a4.24,4.24,0,0,0-4.21,3.81,4.24,4.24,0,0,0-4.21-3.85H13a4.24,4.24,0,0,0-4.23,4.21l0,4.23h3.57l0-4.22h0a.35.35,0,0,1,.69,0V45c6,0,8.92,0,9.47,0V40.78a.37.37,0,0,1,.75,0h0l0,4.22h7.07l0-4.18h0a.35.35,0,0,1,.69,0V45h9.47V40.85a.37.37,0,0,1,.75,0h0l0,4.18h3.58Z"/><path id="_Path_6" data-name="&lt;Path&gt;" class="cls-1" d="M13,34.61a5.65,5.65,0,0,1-.31-5.28v-5a.66.66,0,0,0-.66-.66H5.94a.66.66,0,0,0-.66.66v18H3a.66.66,0,0,0-.66.66v1.32A.66.66,0,0,0,3,45H6.8l0-4.24A6.2,6.2,0,0,1,13,34.61Z"/></g><path id="_Path_7" data-name="&lt;Path&gt;" class="cls-1" d="M17.82,28a3.7,3.7,0,0,0-2.27,6.63h0A3.7,3.7,0,1,0,17.82,28Z"/></g></g></g></svg>