<?xml version="1.0" encoding="utf-8"?>
<!-- Generator: Adobe Illustrator 22.1.0, SVG Export Plug-In . SVG Version: 6.00 Build 0)  -->
<svg version="1.1" id="Layer_1" xmlns="http://www.w3.org/2000/svg" xmlns:xlink="http://www.w3.org/1999/xlink" x="0px" y="0px"
	 viewBox="0 0 300 300" style="enable-background:new 0 0 300 300;" xml:space="preserve">
<style type="text/css">
	.st0{fill:#939598;}
</style>
<g>
	<path class="st0" d="M232,51.7h-15.3V39.9c0-3.8-3-6.8-6.8-6.8s-6.8,3-6.8,6.8v11.8h-46.2V39.9c0-3.8-3-6.8-6.8-6.8s-6.8,3-6.8,6.8
		v11.8H97V39.9c0-3.8-3-6.8-6.8-6.8s-6.8,3-6.8,6.8v11.8H68c-14.1,0-25.7,11.5-25.7,25.7v38.5v125.4c0,14.1,11.5,25.7,25.7,25.7H232
		c14.2,0,25.7-11.5,25.7-25.7V115.9V77.4C257.6,63.2,246.1,51.7,232,51.7z M247.4,241.3c0,8.5-6.9,15.5-15.5,15.5H68
		c-8.5,0-15.5-6.9-15.5-15.5V115.9h194.8V241.3z"/>
	<path class="st0" d="M143.9,237H166V207h17v-19.4h-17V125h-19.1l-49.7,68.4V207h46.7V237z M127,187.6l-3.6,0.4l2.7-2l16.3-21.1
		l1.9-4l-0.5,4.6l0,22.1L127,187.6z"/>
</g>
</svg>
