<svg xmlns="http://www.w3.org/2000/svg" viewBox="0 0 33.98 46"><defs><style>.cls-1{fill:#7ac943;}</style></defs><title>consultant</title><g id="Layer_2" data-name="Layer 2"><g id="Layer_1-2" data-name="Layer 1"><path class="cls-1" d="M11.77,16.7a7.15,7.15,0,0,0,5.18-2.22c1.19-1.24,2.58-3.52,2.44-7.39-.17-4.43-3.62-6.71-7-7.06-.2,0-1,0-1.16,0-3.39.3-6.94,2.58-7.1,7.08C4,11,5.39,13.24,6.59,14.48A7.15,7.15,0,0,0,11.77,16.7ZM15.44,13A5.05,5.05,0,0,1,8.1,13,7,7,0,0,1,6.3,8.86,31.79,31.79,0,0,0,17.2,6.32a5.87,5.87,0,0,1,.09.84A7.8,7.8,0,0,1,15.44,13ZM11.77,2.07A5.89,5.89,0,0,1,16.4,4.38,29.49,29.49,0,0,1,6.27,6.76C6.59,3.67,9.21,2.18,11.77,2.07ZM24.68,27.41A9.29,9.29,0,1,0,34,36.71,9.3,9.3,0,0,0,24.68,27.41Zm0,16.49a7.2,7.2,0,1,1,7.2-7.2A7.21,7.21,0,0,1,24.68,43.9Zm1-7.25v3.79a1,1,0,1,1-2.1,0V36.66a1,1,0,0,1,2.1,0Zm0-3.68a1,1,0,1,1-1-1h0A1,1,0,0,1,25.73,33ZM12,39.16a1,1,0,0,1-1,1H1a1,1,0,0,1-.81-.37A1,1,0,0,1,0,39L2.49,25.65c.87-4.68,5.29-6.78,9.29-6.78,4.27,0,7.8,2.2,9,5.61a1,1,0,1,1-2,.68c-1.08-3.1-4.44-4.21-7-4.21C8.65,21,5.2,22.53,4.55,26L2.31,38.11h8.63A1,1,0,0,1,12,39.16Z"/></g></g></svg>