<?xml version="1.0" encoding="utf-8"?>
<!-- Generator: Adobe Illustrator 22.1.0, SVG Export Plug-In . SVG Version: 6.00 Build 0)  -->
<svg version="1.1" id="Layer_1" xmlns="http://www.w3.org/2000/svg" xmlns:xlink="http://www.w3.org/1999/xlink" x="0px" y="0px"
	 viewBox="0 0 300 300" style="enable-background:new 0 0 300 300;" xml:space="preserve">
<style type="text/css">
	.st0{fill:#939598;}
</style>
<path class="st0" d="M96.7,254.7c-0.9,0-1.8-0.2-2.6-0.7c-1.9-1.2-2.9-3.4-2.3-5.6l9-36c-38.4-14.7-63-45.3-63-79.1
	c0-48.5,50.4-88,112.3-88s112.3,39.5,112.3,88c0,52-57.9,93.8-125.8,87.4l-36.4,32.8C99.2,254.3,97.9,254.7,96.7,254.7z M150,55.5
	c-56.3,0-102.1,34.9-102.1,77.8c0,30.6,23.7,58.5,60.5,71c2.5,0.9,3.9,3.5,3.3,6.1l-6,24.3l25.7-23.1c1.1-1,2.5-1.4,4-1.3
	c4.9,0.5,9.9,0.8,14.7,0.8c56.3,0,102.1-34.9,102.1-77.8S206.3,55.5,150,55.5z"/>
</svg>
