<svg xmlns="http://www.w3.org/2000/svg" viewBox="0 0 31 33.19"><defs><style>.cls-1{fill:#7ac943;}</style></defs><title>contacts</title><g id="Layer_2" data-name="Layer 2"><g id="Layer_1-2" data-name="Layer 1"><polygon class="cls-1" points="2.92 7.21 0.34 7.21 0.34 9.39 2.92 9.39 2.92 15.5 0 15.5 0 17.69 2.92 17.69 2.92 23.79 0 23.79 0 25.98 2.92 25.98 2.92 33.19 8.02 33.19 8.02 0 2.92 0 2.92 7.21"/><path class="cls-1" d="M10.21,0V33.19H31V0ZM20.61,9.91a3.22,3.22,0,1,1-3.22,3.22A3.22,3.22,0,0,1,20.61,9.91ZM14.77,23.28a5.84,5.84,0,1,1,11.67,0Z"/></g></g></svg>