<?xml version="1.0" encoding="utf-8"?>
<!-- Generator: Adobe Illustrator 22.1.0, SVG Export Plug-In . SVG Version: 6.00 Build 0)  -->
<svg version="1.1" id="Layer_1" xmlns="http://www.w3.org/2000/svg" xmlns:xlink="http://www.w3.org/1999/xlink" x="0px" y="0px"
	 viewBox="0 0 300 300" style="enable-background:new 0 0 300 300;" xml:space="preserve">
<style type="text/css">
	.st0{fill:#939598;}
</style>
<g>
	<path class="st0" d="M150,42.8C90.9,42.8,42.8,90.9,42.8,150c0,59.1,48.1,107.2,107.2,107.2S257.2,209.1,257.2,150
		C257.2,90.9,209.1,42.8,150,42.8z M150,247c-53.5,0-97-43.5-97-97c0-53.5,43.5-97,97-97s97,43.5,97,97C247,203.5,203.5,247,150,247
		z"/>
	<path class="st0" d="M145.3,182.3c-3.7,0-6.7,1.1-8.9,3.2c-2.3,2.1-3.4,5-3.4,8.6c0,3.6,1.1,6.5,3.4,8.6c2.3,2.2,5.2,3.2,8.9,3.2
		c3.9,0,7-1.1,9.2-3.2c2.3-2.2,3.4-5,3.4-8.6c0-3.6-1.1-6.4-3.4-8.6C152.3,183.3,149.2,182.3,145.3,182.3z"/>
	<path class="st0" d="M173.2,101.1c-5.4-4.7-13-7-22.7-7c-7.2,0-13.3,0.9-18.4,2.6c-5.1,1.7-9.6,4-13.5,6.6l7.7,14.8
		c1.3-0.9,2.9-1.8,4.5-2.7c1.7-0.9,3.5-1.6,5.3-2.3c1.8-0.7,3.7-1.2,5.5-1.5c1.8-0.4,3.6-0.5,5.2-0.5c5.1,0,8.7,1.1,10.7,3.2
		c2,2.2,3,5,3,8.6c0,2.8-0.7,5.2-2,7.2c-1.3,2-3,3.9-5,5.8c-2,1.8-4.2,3.8-6.5,5.8c-2.3,2-4.4,4.4-6.2,7.1c-1.8,2.7-3.2,6-4.2,9.7
		c-1,3.8-1.3,8.3-0.8,13.6h17.1c0-4.3,0.7-7.9,2.2-10.6c1.4-2.8,3.2-5.2,5.2-7.3c2.1-2.1,4.3-4.1,6.8-5.9c2.5-1.9,4.7-4,6.8-6.4
		c2.1-2.4,3.8-5.3,5.2-8.8c1.4-3.4,2.1-7.8,2.1-13C181.4,112.1,178.6,105.8,173.2,101.1z"/>
</g>
</svg>
