<?xml version="1.0" encoding="utf-8"?>
<!-- Generator: Adobe Illustrator 23.0.3, SVG Export Plug-In . SVG Version: 6.00 Build 0)  -->
<svg version="1.1" id="Layer_1" xmlns="http://www.w3.org/2000/svg" xmlns:xlink="http://www.w3.org/1999/xlink" x="0px" y="0px"
	 viewBox="0 0 1319.6 198.9" style="enable-background:new 0 0 1319.6 198.9;" xml:space="preserve">
<style type="text/css">
	.st0{fill:#0FB5DB;}
	.st1{fill:#FFFFFF;}
</style>
<g>
	<g>
		<path class="st0" d="M1281.6,15.9c3.9,0,5.1,2,5.7,5.3l2.2,12.8c0.6,3.3,2,3.9,5.1,3.9h16.3c2.6,0,3.9,1.4,3.9,3.9v16.5
			c0,2.6-1.4,3.9-3.9,3.9H1293c-1.4,0-2.4,0.8-2.4,2.4v39.9c0,5.3,1.8,10.6,12.6,10.6c6.5,0,8.1-1,11.4-1c1.6,0,2.8,1.4,2.9,3.5
			l2,14.9c0.4,3.1-0.9,4.9-4.1,6.1c-6.4,2.4-12.6,2.8-16.3,2.8c-29.7,0-36.4-12.4-36.4-33.8V19.3c0-1.8,1.2-3.3,3.3-3.3H1281.6z"/>
		<path class="st0" d="M647.3,43.1c0-29.7,8.1-43.1,41.9-43.1c29.5,0,44.6,11.8,44.6,34c0,15.3-5.3,23.8-14.7,29.7v0.6
			c12.6,5.1,20.1,15.1,20.1,34.8c0,26-15.3,40.5-43.1,40.5h-29.5c-12,0-19.3-8.8-19.3-18.3V43.1z M688.4,58.2
			c11.4,0,15.9-5.3,15.9-16.5c0-10.4-4.9-14.9-14.9-14.9c-9.2,0-12.6,4.1-12.6,12.4v16.1c0,1.8,1.2,2.9,3.1,2.9H688.4z M692,112.9
			c11.6,0,16.5-5.7,16.5-16.5c0-12-6.5-16.3-16.7-16.3H680c-1.6,0-3.1,1.2-3.1,2.9v27.1c0,1.8,1.8,2.8,3.1,2.8H692z"/>
		<path class="st0" d="M771.8,2c2.6,0,3.9,1.4,3.9,3.9v129.8c0,2.6-1.4,3.9-3.9,3.9H752c-2.6,0-3.9-1.4-3.9-3.9V5.9
			c0-2.6,1.4-3.9,3.9-3.9H771.8z"/>
		<path class="st0" d="M864.8,38c2.6,0,3.9,1.4,3.9,3.9v55.6c0,32.6-10.2,44.1-40.3,44.1c-30.3,0-40.9-11.4-40.9-44.1V41.9
			c0-2.6,1.4-3.9,3.9-3.9h20.1c2.6,0,3.9,1.4,3.9,3.9v59.6c0,11.2,3.5,14.5,13,14.5c9.2,0,12.2-3.3,12.2-14.5V41.9
			c0-2.6,1.4-3.9,3.9-3.9H864.8z"/>
		<path class="st0" d="M956.1,127.4c1,3.9-0.4,7.5-3.9,9.2c-4.9,2.8-16.1,4.5-29.1,4.5c-30.3,0-44.2-13.6-44.2-52.7
			c0-39.7,15.1-52.5,42.9-52.5c26,0,38.5,14.8,38.5,41.3v8.6c0,11-4.7,15.3-15.3,15.3h-36.6c-1.2,0-1.6,0.4-1.6,1.4v0.6
			c0,8.7,4.3,13.6,18.5,13.6c12.4,0,20.3-3.1,23.8-3.1c2.2,0,3.7,1.2,4.3,3.7L956.1,127.4z M933.3,80.2c1.6,0,2-0.8,2-2
			c0-13.2-4.7-17.9-13.2-17.9c-9.6,0-15.3,4.5-15.3,17.9c0,1.4,0.6,2,2,2H933.3z"/>
		<path class="st0" d="M1064.5,68.2c0-24.8,8.9-32.2,28.1-32.2c10.8,0,17.9,1.3,22.6,2.8c4.9,1.5,6.3,3.5,4.9,9.2l-1.8,10.2
			c-0.4,2.6-1.8,4.1-3.9,4.1c-3.3,0-8.1-1-13.4-1c-7.1,0-8.7,2.8-8.7,10.4v64.7c0,1.6-1.2,3.1-3.3,3.1h-21.2c-2.2,0-3.3-1.6-3.3-3.1
			V68.2z"/>
		<path class="st0" d="M1168.7,73.7c0-21.8,5.7-37.8,41.3-37.8c35.4,0,40.9,15.9,40.9,37.8v62.7c0,1.6-1,3.1-3.3,3.1h-21.2
			c-2.8,0-3.3-1.6-3.3-3.1V75.9c0-12-3.9-14.4-13-14.4c-8.9,0-13.4,2.4-13.4,14.4v60.6c0,2-1.2,3.1-3.1,3.1h-21.6
			c-2,0-3.1-1.2-3.1-3.1V73.7z"/>
		<path class="st0" d="M1156.5,49.5c0,0,0-14.6-14.2-14.5h-0.2c0,0-14.2,0-14.2,14.5v1v37v48.1c0,2.8,1.2,3.9,3.3,3.9h21.2
			c2.8,0,3.9-1.2,3.9-3.9V50.6c0,0,0,0,0,0V49.5z"/>
		<path class="st0" d="M1012.2,36c-29.3,0.2-42.5,15.1-42.5,40.9v60.8v6.9v6.3c0,0,0,14.3,13.9,14.2h0.2c0,0,13.9,0,13.9-14.2v-10.7
			c0-1,0.6-1.5,1.5-1.5c1,0,7.3,2.9,17.4,2.9c24.9,0,38.2-19,38.2-53.1C1054.7,52.5,1043.9,35.8,1012.2,36 M1009.4,116
			c-9.4,0-11.8-1.9-11.8-9.1V82c0-15.1,3.3-20.5,14.3-20.5c11,0,14.3,4.3,14.3,26.9C1026.1,110.1,1022.1,116,1009.4,116"/>
		<path class="st0" d="M985.8,171.3h-4.3c0,0-11.7,0-11.8,12.2v3.3c0,0,0,12.2,11.8,12.2h4.3c0,0,11.8,0,11.8-12.2l0-3.3
			C997.6,183.5,997.6,171.3,985.8,171.3"/>
	</g>
	<path class="st1" d="M0,43.4C0,13.7,8.1,0.3,41.9,0.3c29.5,0,44.7,11.8,44.7,34c0,15.3-5.3,23.8-14.8,29.7v0.6
		c12.6,5.1,20.1,15.2,20.1,34.8c0,26-15.3,40.5-43.1,40.5H19.3C7.3,140,0,131.1,0,121.7V43.4z M41.1,58.5C52.5,58.5,57,53.2,57,42
		c0-10.4-4.9-15-15-15c-9.2,0-12.6,4.1-12.6,12.4v16.1c0,1.8,1.2,3,3.2,3H41.1z M44.6,113.2c11.6,0,16.5-5.7,16.5-16.5
		c0-12-6.5-16.3-16.7-16.3H32.7c-1.6,0-3.2,1.2-3.2,2.9v27.1c0,1.8,1.8,2.7,3.2,2.7H44.6z"/>
	<path class="st1" d="M176.8,36c2.6,0,3.9,1.4,3.9,3.9v55.7c0,32.6-10.2,44.1-40.3,44.1c-30.3,0-40.9-11.4-40.9-44.1V39.9
		c0-2.6,1.4-3.9,3.9-3.9h20.1c2.6,0,3.9,1.4,3.9,3.9v59.6c0,11.2,3.5,14.6,13,14.6c9.2,0,12.2-3.3,12.2-14.6V39.9
		c0-2.6,1.4-3.9,3.9-3.9H176.8z"/>
	<path class="st1" d="M208.5,91.4c-11.2-5.2-19.1-11.4-19.1-28.9c0-21.5,12.4-28.5,37.4-28.5c11.6,0,23,1.3,27.7,3.2
		c2,0.8,3.3,2.9,2.8,6.1l-2,11.8c-0.4,2.8-1,4.1-3.9,4.1c-3.9,0-13.6-1.8-22.2-1.8c-7.6,0-12,1.5-12,6.5c0,5.7,6.1,7.2,14.4,10.8
		l9.4,4.3c12.5,5.7,19.1,11.4,19.1,28.7c0,21.4-11.6,31.9-40.5,31.9c-7.3,0-20.3-1.4-24.8-2.6c-3.1-0.8-4.5-3.2-4.1-6.3l1.8-14.2
		c0.2-1.8,1.2-2.8,3-2.8c3.1,0,10.6,1.8,22.4,1.8c11.6,0,14.8-2.8,14.8-7.5c0-5.1-3.3-6.7-11-10.4L208.5,91.4z"/>
	<path class="st1" d="M308.5,73.7c0-21.8,5.7-37.8,41.3-37.8c35.4,0,40.9,15.9,40.9,37.8v62.8c0,1.6-1,3.1-3.3,3.1h-21.2
		c-2.8,0-3.4-1.6-3.4-3.1V75.9c0-12-3.9-14.3-13-14.3c-8.9,0-13.4,2.4-13.4,14.3v60.6c0,2-1.2,3.1-3.2,3.1h-21.6
		c-2,0-3.2-1.2-3.2-3.1V73.7z"/>
	<path class="st1" d="M476.3,125.8c1,3.9-0.4,7.5-3.9,9.3c-4.9,2.7-16.1,4.5-29.1,4.5C413,139.6,399,126,399,86.9
		c0-39.7,15.1-52.5,42.9-52.5c26,0,38.5,14.8,38.5,41.3v8.7c0,11-4.7,15.3-15.3,15.3h-36.6c-1.2,0-1.6,0.4-1.6,1.4v0.6
		c0,8.7,4.3,13.6,18.5,13.6c12.4,0,20.3-3.1,23.8-3.1c2.2,0,3.7,1.2,4.3,3.7L476.3,125.8z M453.5,78.6c1.6,0,2-0.8,2-2
		c0-13.2-4.7-17.9-13.2-17.9c-9.6,0-15.4,4.5-15.4,17.9c0,1.4,0.6,2,2,2H453.5z"/>
	<path class="st1" d="M506.8,91.4c-11.2-5.2-19.1-11.4-19.1-28.9c0-21.5,12.5-28.5,37.4-28.5c11.6,0,23,1.3,27.7,3.2
		c2,0.8,3.3,2.9,2.8,6.1l-2,11.8c-0.4,2.8-1,4.1-3.9,4.1c-3.9,0-13.6-1.8-22.2-1.8c-7.6,0-12,1.5-12,6.5c0,5.7,6.1,7.2,14.4,10.8
		l9.4,4.3c12.5,5.7,19.1,11.4,19.1,28.7c0,21.4-11.6,31.9-40.5,31.9c-7.3,0-20.2-1.4-24.8-2.6c-3.1-0.8-4.5-3.2-4.1-6.3l1.8-14.2
		c0.2-1.8,1.2-2.8,2.9-2.8c3.2,0,10.6,1.8,22.4,1.8c11.6,0,14.8-2.8,14.8-7.5c0-5.1-3.3-6.7-11-10.4L506.8,91.4z"/>
	<path class="st1" d="M581.4,91.4c-11.2-5.2-19.1-11.4-19.1-28.9c0-21.5,12.5-28.5,37.4-28.5c11.6,0,23,1.3,27.7,3.2
		c2,0.8,3.4,2.9,2.8,6.1l-2,11.8c-0.4,2.8-1,4.1-3.9,4.1c-3.9,0-13.6-1.8-22.2-1.8c-7.6,0-12,1.5-12,6.5c0,5.7,6.1,7.2,14.4,10.8
		l9.4,4.3c12.5,5.7,19.1,11.4,19.1,28.7c0,21.4-11.6,31.9-40.5,31.9c-7.3,0-20.3-1.4-24.8-2.6c-3.2-0.8-4.5-3.2-4.1-6.3l1.8-14.2
		c0.2-1.8,1.2-2.8,2.9-2.8c3.2,0,10.6,1.8,22.4,1.8c11.6,0,14.7-2.8,14.7-7.5c0-5.1-3.3-6.7-11-10.4L581.4,91.4z"/>
	<path class="st1" d="M282.8,36h-0.2c0,0-14.3,0-14.3,14.7v38.6c0,0,0,0.1,0,0.2V136c0,2.6,1.2,3.7,3.4,3.7h21.5c2.8,0,4-1.1,4-3.7
		V89.3V56.9v-6.2C297.2,50.7,297.2,35.9,282.8,36"/>
	<path class="st1" d="M284.9-3.2h-4.4c0,0-12.2,0-12.2,12.6l0,3.4c0,0,0,12.6,12.2,12.6h4.4c0,0,12.2,0,12.2-12.6V9.4
		C297.2,9.4,297.2-3.2,284.9-3.2"/>
	<path class="st0" d="M1144.5-3.2h-4.4c0,0-12.2,0-12.2,12.6l0,3.4c0,0,0,12.6,12.2,12.6h4.4c0,0,12.2,0,12.2-12.6V9.4
		C1156.7,9.4,1156.7-3.2,1144.5-3.2"/>
</g>
</svg>
