<?xml version="1.0" encoding="utf-8"?>
<!-- Generator: Adobe Illustrator 23.0.1, SVG Export Plug-In . SVG Version: 6.00 Build 0)  -->
<svg version="1.1" id="Layer_1" xmlns="http://www.w3.org/2000/svg" xmlns:xlink="http://www.w3.org/1999/xlink" x="0px" y="0px"
	 viewBox="0 0 1300 199.1" style="enable-background:new 0 0 1300 199.1;" xml:space="preserve">
<style type="text/css">
	.st0{fill:url(#SVGID_1_);}
	.st1{fill:url(#SVGID_2_);}
	.st2{fill:url(#SVGID_3_);}
	.st3{fill:url(#SVGID_4_);}
	.st4{fill:url(#SVGID_5_);}
	.st5{fill:url(#SVGID_6_);}
	.st6{fill:url(#SVGID_7_);}
	.st7{fill:url(#SVGID_8_);}
	.st8{fill:url(#SVGID_9_);}
	.st9{fill:url(#SVGID_10_);}
	.st10{fill:#00254C;}
	.st11{fill:url(#SVGID_11_);}
</style>
<g>
	<g>
		<linearGradient id="SVGID_1_" gradientUnits="userSpaceOnUse" x1="1315.1273" y1="71.4487" x2="645.2343" y2="197.5462">
			<stop  offset="0" style="stop-color:#00BDDD"/>
			<stop  offset="1" style="stop-color:#0076C0"/>
		</linearGradient>
		<path class="st0" d="M1262.5,18.9c3.9,0,5,1.9,5.6,5.2l2.1,12.6c0.6,3.3,1.9,3.9,5,3.9h16.1c2.5,0,3.9,1.4,3.9,3.9v16.3
			c0,2.5-1.4,3.9-3.9,3.9h-17.6c-1.4,0-2.3,0.8-2.3,2.3v39.3c0,5.2,1.7,10.5,12.4,10.5c6.4,0,7.9-1,11.2-1c1.5,0,2.7,1.4,2.9,3.5
			l1.9,14.7c0.4,3.1-0.9,4.8-4.1,6c-6.3,2.3-12.4,2.7-16.1,2.7c-29.3,0-35.8-12.2-35.8-33.3V22.1c0-1.7,1.2-3.3,3.3-3.3H1262.5z"/>
		<linearGradient id="SVGID_2_" gradientUnits="userSpaceOnUse" x1="1293.5223" y1="-43.3275" x2="623.6293" y2="82.77">
			<stop  offset="0" style="stop-color:#00BDDD"/>
			<stop  offset="1" style="stop-color:#0076C0"/>
		</linearGradient>
		<path class="st1" d="M637.7,45.6c0-29.2,7.9-42.4,41.3-42.4c29.1,0,44,11.6,44,33.5c0,15.1-5.2,23.4-14.5,29.3v0.6
			c12.4,5,19.8,14.9,19.8,34.3c0,25.6-15.1,39.9-42.4,39.9h-29.1c-11.8,0-19-8.7-19-18V45.6z M678.2,60.5c11.2,0,15.7-5.2,15.7-16.3
			c0-10.3-4.8-14.7-14.7-14.7c-9.1,0-12.4,4.1-12.4,12.2v15.9c0,1.7,1.2,2.9,3.1,2.9H678.2z M681.7,114.4c11.4,0,16.3-5.6,16.3-16.3
			c0-11.8-6.4-16.1-16.5-16.1h-11.6c-1.6,0-3.1,1.2-3.1,2.9v26.7c0,1.7,1.7,2.7,3.1,2.7H681.7z"/>
		<linearGradient id="SVGID_3_" gradientUnits="userSpaceOnUse" x1="1296.0724" y1="-29.7807" x2="626.1793" y2="96.3169">
			<stop  offset="0" style="stop-color:#00BDDD"/>
			<stop  offset="1" style="stop-color:#0076C0"/>
		</linearGradient>
		<path class="st2" d="M760.3,5.1c2.5,0,3.9,1.4,3.9,3.9v127.9c0,2.5-1.4,3.9-3.9,3.9h-19.6c-2.5,0-3.9-1.4-3.9-3.9V9
			c0-2.5,1.4-3.9,3.9-3.9H760.3z"/>
		<linearGradient id="SVGID_4_" gradientUnits="userSpaceOnUse" x1="1301.2198" y1="-2.4344" x2="631.3268" y2="123.6631">
			<stop  offset="0" style="stop-color:#00BDDD"/>
			<stop  offset="1" style="stop-color:#0076C0"/>
		</linearGradient>
		<path class="st3" d="M852,40.6c2.5,0,3.9,1.4,3.9,3.9v54.8c0,32.2-10.1,43.4-39.7,43.4c-29.8,0-40.3-11.2-40.3-43.4V44.4
			c0-2.5,1.4-3.9,3.9-3.9h19.8c2.5,0,3.9,1.4,3.9,3.9v58.7c0,11,3.5,14.3,12.8,14.3c9.1,0,12-3.3,12-14.3V44.4
			c0-2.5,1.4-3.9,3.9-3.9H852z"/>
		<linearGradient id="SVGID_5_" gradientUnits="userSpaceOnUse" x1="1304.7433" y1="16.2839" x2="634.8503" y2="142.3814">
			<stop  offset="0" style="stop-color:#00BDDD"/>
			<stop  offset="1" style="stop-color:#0076C0"/>
		</linearGradient>
		<path class="st4" d="M941.9,128.7c1,3.9-0.4,7.4-3.9,9.1c-4.8,2.7-15.9,4.5-28.7,4.5c-29.8,0-43.6-13.4-43.6-51.9
			c0-39.1,14.9-51.7,42.2-51.7c25.6,0,38,14.5,38,40.7v8.5c0,10.9-4.7,15.1-15.1,15.1h-36c-1.2,0-1.5,0.4-1.5,1.4v0.6
			c0,8.5,4.3,13.4,18.2,13.4c12.2,0,20-3.1,23.4-3.1c2.1,0,3.7,1.2,4.3,3.7L941.9,128.7z M919.4,82.2c1.5,0,1.9-0.8,1.9-1.9
			c0-13-4.7-17.6-13-17.6c-9.5,0-15.1,4.5-15.1,17.6c0,1.4,0.6,1.9,1.9,1.9H919.4z"/>
		<linearGradient id="SVGID_6_" gradientUnits="userSpaceOnUse" x1="1310.1267" y1="44.883" x2="640.2336" y2="170.9806">
			<stop  offset="0" style="stop-color:#00BDDD"/>
			<stop  offset="1" style="stop-color:#0076C0"/>
		</linearGradient>
		<path class="st5" d="M1048.7,70.4c0-24.4,8.7-31.8,27.7-31.8c10.7,0,17.6,1.3,22.3,2.7c4.9,1.5,6.2,3.5,4.8,9.1l-1.7,10.1
			c-0.4,2.5-1.7,4.1-3.9,4.1c-3.3,0-7.9-1-13.2-1c-7,0-8.5,2.7-8.5,10.3v63.7c0,1.5-1.2,3.1-3.3,3.1H1052c-2.1,0-3.3-1.6-3.3-3.1
			V70.4z"/>
		<linearGradient id="SVGID_7_" gradientUnits="userSpaceOnUse" x1="1314.7209" y1="69.2901" x2="644.8279" y2="195.3876">
			<stop  offset="0" style="stop-color:#00BDDD"/>
			<stop  offset="1" style="stop-color:#0076C0"/>
		</linearGradient>
		<path class="st6" d="M1151.3,75.8c0-21.5,5.6-37.2,40.7-37.2c34.9,0,40.3,15.7,40.3,37.2v61.8c0,1.5-1,3.1-3.3,3.1h-20.9
			c-2.7,0-3.3-1.5-3.3-3.1V77.9c0-11.8-3.9-14.1-12.8-14.1c-8.7,0-13.2,2.3-13.2,14.1v59.7c0,1.9-1.2,3.1-3.1,3.1h-21.3
			c-1.9,0-3.1-1.2-3.1-3.1V75.8z"/>
		<linearGradient id="SVGID_8_" gradientUnits="userSpaceOnUse" x1="1312.0195" y1="54.9391" x2="642.1265" y2="181.0366">
			<stop  offset="0" style="stop-color:#00BDDD"/>
			<stop  offset="1" style="stop-color:#0076C0"/>
		</linearGradient>
		<path class="st7" d="M1139.3,52c0,0,0-14.4-13.9-14.3h-0.2c0,0-13.9,0-13.9,14.3v1v36.5v47.3c0,2.7,1.2,3.9,3.3,3.9h20.9
			c2.7,0,3.9-1.2,3.9-3.9V53c0,0,0,0,0,0V52z"/>
		<linearGradient id="SVGID_9_" gradientUnits="userSpaceOnUse" x1="1309.2722" y1="40.3436" x2="639.3792" y2="166.4411">
			<stop  offset="0" style="stop-color:#00BDDD"/>
			<stop  offset="1" style="stop-color:#0076C0"/>
		</linearGradient>
		<path class="st8" d="M997.1,38.6c-28.8,0.2-41.8,14.9-41.8,40.3v59.9v6.8v6.2c0,0,0,14.1,13.7,14h0.2c0,0,13.7,0,13.7-14v-10.6
			c0-1,0.6-1.5,1.4-1.5c1,0,7.2,2.9,17.1,2.9c24.5,0,37.6-18.7,37.6-52.3C1039,54.9,1028.3,38.4,997.1,38.6 M994.4,117.5
			c-9.2,0-11.6-1.9-11.6-9V83.9c0-14.9,3.2-20.1,14-20.1c10.8,0,14,4.3,14,26.5C1010.9,111.6,1006.9,117.5,994.4,117.5"/>
		<linearGradient id="SVGID_10_" gradientUnits="userSpaceOnUse" x1="1324.0205" y1="118.6939" x2="654.1274" y2="244.7914">
			<stop  offset="0" style="stop-color:#00BDDD"/>
			<stop  offset="1" style="stop-color:#0076C0"/>
		</linearGradient>
		<path class="st9" d="M971.2,171.9h-4.2c0,0-11.6,0-11.6,12v3.2c0,0,0,12,11.6,12h4.2c0,0,11.6,0,11.7-12l0-3.2
			C982.8,183.9,982.8,171.9,971.2,171.9"/>
	</g>
	<path class="st10" d="M0,45.9C0,16.7,7.9,3.5,41.3,3.5c29.1,0,44,11.6,44,33.5c0,15.1-5.2,23.4-14.5,29.3v0.6
		c12.4,5,19.8,14.9,19.8,34.3c0,25.6-15.1,39.9-42.4,39.9H19c-11.8,0-19-8.7-19-18V45.9z M40.5,60.8c11.2,0,15.7-5.2,15.7-16.3
		c0-10.3-4.8-14.7-14.7-14.7c-9.1,0-12.4,4.1-12.4,12.2v15.9c0,1.7,1.2,2.9,3.1,2.9H40.5z M44,114.7c11.4,0,16.3-5.6,16.3-16.3
		c0-11.8-6.4-16.1-16.5-16.1H32.2c-1.5,0-3.1,1.2-3.1,2.9V112c0,1.7,1.7,2.7,3.1,2.7H44z"/>
	<path class="st10" d="M174.1,38.6c2.5,0,3.9,1.4,3.9,3.9v54.8c0,32.2-10.1,43.4-39.7,43.4c-29.8,0-40.3-11.2-40.3-43.4V42.5
		c0-2.5,1.4-3.9,3.9-3.9h19.8c2.5,0,3.9,1.4,3.9,3.9v58.7c0,11.1,3.5,14.3,12.8,14.3c9.1,0,12-3.3,12-14.3V42.5
		c0-2.5,1.4-3.9,3.9-3.9H174.1z"/>
	<path class="st10" d="M205.4,93.2c-11-5.1-18.8-11.2-18.8-28.5c0-21.2,12.3-28.1,36.8-28.1c11.4,0,22.7,1.3,27.3,3.1
		c1.9,0.8,3.3,2.9,2.7,6l-1.9,11.6c-0.4,2.7-1,4.1-3.9,4.1c-3.9,0-13.4-1.8-21.9-1.8c-7.5,0-11.8,1.5-11.8,6.4
		c0,5.6,6,7.1,14.1,10.7l9.3,4.3c12.3,5.6,18.8,11.2,18.8,28.3c0,21.1-11.4,31.4-39.9,31.4c-7.2,0-20-1.4-24.4-2.5
		c-3.1-0.8-4.5-3.1-4.1-6.2l1.7-14c0.2-1.7,1.2-2.7,2.9-2.7c3.1,0,10.5,1.7,22.1,1.7c11.4,0,14.5-2.7,14.5-7.4
		c0-5-3.3-6.6-10.9-10.3L205.4,93.2z"/>
	<path class="st10" d="M303.9,75.8c0-21.5,5.6-37.2,40.7-37.2c34.9,0,40.3,15.7,40.3,37.2v61.8c0,1.5-1,3.1-3.3,3.1h-20.9
		c-2.7,0-3.3-1.6-3.3-3.1V77.9c0-11.8-3.9-14.1-12.8-14.1c-8.7,0-13.2,2.3-13.2,14.1v59.7c0,1.9-1.2,3.1-3.1,3.1h-21.3
		c-1.9,0-3.1-1.2-3.1-3.1V75.8z"/>
	<path class="st10" d="M469.3,127.1c1,3.9-0.4,7.4-3.9,9.1c-4.8,2.7-15.9,4.5-28.7,4.5c-29.8,0-43.6-13.4-43.6-51.9
		c0-39.2,14.9-51.7,42.3-51.7c25.6,0,38,14.5,38,40.7v8.5c0,10.9-4.6,15.1-15.1,15.1h-36c-1.2,0-1.5,0.4-1.5,1.4v0.6
		c0,8.5,4.3,13.4,18.2,13.4c12.2,0,20-3.1,23.5-3.1c2.1,0,3.7,1.2,4.3,3.7L469.3,127.1z M446.8,80.6c1.6,0,1.9-0.8,1.9-1.9
		c0-13-4.7-17.6-13-17.6c-9.5,0-15.1,4.5-15.1,17.6c0,1.4,0.6,1.9,1.9,1.9H446.8z"/>
	<path class="st10" d="M499.3,93.2c-11-5.1-18.8-11.2-18.8-28.5c0-21.2,12.3-28.1,36.8-28.1c11.4,0,22.7,1.3,27.3,3.1
		c2,0.8,3.3,2.9,2.7,6l-1.9,11.6c-0.4,2.7-1,4.1-3.9,4.1c-3.9,0-13.4-1.8-21.9-1.8c-7.5,0-11.8,1.5-11.8,6.4c0,5.6,6,7.1,14.1,10.7
		l9.3,4.3c12.3,5.6,18.8,11.2,18.8,28.3c0,21.1-11.4,31.4-39.9,31.4c-7.2,0-19.9-1.4-24.4-2.5c-3.1-0.8-4.5-3.1-4.1-6.2l1.7-14
		c0.2-1.7,1.2-2.7,2.9-2.7c3.1,0,10.5,1.7,22.1,1.7c11.4,0,14.5-2.7,14.5-7.4c0-5-3.3-6.6-10.9-10.3L499.3,93.2z"/>
	<path class="st10" d="M572.8,93.2C561.8,88.1,554,82,554,64.7c0-21.2,12.3-28.1,36.8-28.1c11.4,0,22.7,1.3,27.3,3.1
		c2,0.8,3.3,2.9,2.7,6l-1.9,11.6c-0.4,2.7-1,4.1-3.9,4.1c-3.9,0-13.4-1.8-21.9-1.8c-7.5,0-11.8,1.5-11.8,6.4c0,5.6,6,7.1,14.2,10.7
		l9.3,4.3c12.3,5.6,18.8,11.2,18.8,28.3c0,21.1-11.4,31.4-39.9,31.4c-7.2,0-20-1.4-24.4-2.5c-3.1-0.8-4.5-3.1-4.1-6.2l1.7-14
		c0.2-1.7,1.2-2.7,2.9-2.7c3.1,0,10.5,1.7,22.1,1.7c11.4,0,14.5-2.7,14.5-7.4c0-5-3.2-6.6-10.8-10.3L572.8,93.2z"/>
	<path class="st10" d="M278.6,38.6h-0.2c0,0-14.1,0-14.1,14.5v38c0,0,0,0.1,0,0.2v45.8c0,2.5,1.2,3.6,3.3,3.6h21.2
		c2.7,0,3.9-1.1,3.9-3.6v-46V59.2v-6.1C292.8,53.1,292.8,38.6,278.6,38.6"/>
	<path class="st10" d="M280.7,0h-4.3c0,0-12,0-12.1,12.4l0,3.3c0,0,0,12.4,12,12.4h4.3c0,0,12,0,12-12.4v-3.3
		C292.8,12.4,292.8,0,280.7,0"/>
	<linearGradient id="SVGID_11_" gradientUnits="userSpaceOnUse" x1="1302.8273" y1="-16.0743" x2="612.2463" y2="101.157">
		<stop  offset="0" style="stop-color:#00BDDD"/>
		<stop  offset="1" style="stop-color:#0076C0"/>
	</linearGradient>
	<path class="st11" d="M1127.5,0h-4.3c0,0-12,0-12.1,12.4l0,3.3c0,0,0,12.4,12,12.4h4.3c0,0,12,0,12-12.4v-3.3
		C1139.5,12.4,1139.5,0,1127.5,0"/>
</g>
</svg>
