<?xml version="1.0" encoding="utf-8"?>
<!-- Generator: Adobe Illustrator 22.1.0, SVG Export Plug-In . SVG Version: 6.00 Build 0)  -->
<svg version="1.1" id="Layer_1" xmlns="http://www.w3.org/2000/svg" xmlns:xlink="http://www.w3.org/1999/xlink" x="0px" y="0px"
	 viewBox="0 0 300 300" style="enable-background:new 0 0 300 300;" xml:space="preserve">
<style type="text/css">
	.st0{fill:#939598;}
</style>
<g>
	<path class="st0" d="M114.3,227.8H207c2.8,0,5.1-2.3,5.1-5.1c0-2.8-2.3-5.1-5.1-5.1h-92.7c-2.8,0-5.1,2.3-5.1,5.1
		C109.2,225.6,111.5,227.8,114.3,227.8z"/>
	<path class="st0" d="M114.3,189H207c2.8,0,5.1-2.3,5.1-5.1c0-2.8-2.3-5.1-5.1-5.1h-92.7c-2.8,0-5.1,2.3-5.1,5.1
		C109.2,186.7,111.5,189,114.3,189z"/>
	<path class="st0" d="M114.3,150.1H207c2.8,0,5.1-2.3,5.1-5.1c0-2.8-2.3-5.1-5.1-5.1h-92.7c-2.8,0-5.1,2.3-5.1,5.1
		C109.2,147.9,111.5,150.1,114.3,150.1z"/>
	<path class="st0" d="M114.3,111.3H207c2.8,0,5.1-2.3,5.1-5.1c0-2.8-2.3-5.1-5.1-5.1h-92.7c-2.8,0-5.1,2.3-5.1,5.1
		C109.2,109,111.5,111.3,114.3,111.3z"/>
	<path class="st0" d="M217.6,57.2V28.3H61.1v214.5h21.3v28.9h156.5V57.2H217.6z M82.4,232.6H71.3v-194h136.1v18.7H82.4V232.6z
		 M228.7,261.5H92.6v-194h136.1V261.5z"/>
</g>
</svg>
